v -0.318635 0.209020 -0.277151
v -0.321806 0.297755 -0.287114
v -0.325681 0.406209 -0.299292
v -0.324886 0.423259 -0.312567
v -0.321043 0.484471 -0.354306
v -0.263472 0.404694 -0.277055
v -0.224869 0.318436 -0.317001
v -0.206899 0.296594 -0.413662
v -0.205711 0.303652 -0.447963
v -0.205711 0.303652 -0.447963
v -0.387890 0.407724 -0.321530
v -0.413145 0.312567 -0.362997
v -0.433144 0.239567 -0.425304
v -0.439157 0.225878 -0.448593
v -0.439157 0.225878 -0.448593
v -0.281759 0.204120 -0.267393
v -0.334938 0.205604 -0.405392
v -0.321858 0.082082 -0.365613
v -0.353269 0.052551 -0.414861
v -0.355512 0.213921 -0.286908
v -0.391780 0.192727 -0.424193
v -0.371468 0.076373 -0.386130
v -0.363055 0.041688 -0.434563
l 1 2
l 2 3
l 3 4
l 4 5
l 3 6
l 6 7
l 7 8
l 8 9
l 9 10
l 3 11
l 11 12
l 12 13
l 13 14
l 14 15
l 1 16
l 16 17
l 17 18
l 18 19
l 1 20
l 20 21
l 21 22
l 22 23